<?xml version="1.0" encoding="utf-8"?>
<!-- Generator: Adobe Illustrator 18.0.0, SVG Export Plug-In . SVG Version: 6.00 Build 0)  -->
<svg version="1.1" id="图层_1" xmlns="http://www.w3.org/2000/svg" xmlns:xlink="http://www.w3.org/1999/xlink" x="0px" y="0px"
	 width="96px" height="96px" viewBox="0 0 96 96" enable-background="new 0 0 96 96" xml:space="preserve">
<g>
	<path fill-opacity="0.4" d="M88,49c0,29.633-10.363,40-40,40C18.365,89,8,78.633,8,49C8,19.365,18.365,9,48,9
		C77.637,9,88,19.365,88,49z"/>
	
		<linearGradient id="SVGID_1_" gradientUnits="userSpaceOnUse" x1="198" y1="350" x2="118" y2="350" gradientTransform="matrix(4.489659e-011 1 -1 4.489659e-011 398 -110)">
		<stop  offset="0" style="stop-color:#DBDBDC"/>
		<stop  offset="1" style="stop-color:#FAFAFA"/>
	</linearGradient>
	<path fill="url(#SVGID_1_)" d="M48,88C18.367,88,8,77.637,8,48C8,18.365,18.367,8,48,8c29.635,0,40,10.365,40,40
		C88,77.637,77.635,88,48,88z"/>
	
		<linearGradient id="SVGID_2_" gradientUnits="userSpaceOnUse" x1="48" y1="200.2534" x2="48" y2="279.4985" gradientTransform="matrix(1 0 0 1 0 -192)">
		<stop  offset="0" style="stop-color:#FFFFFF"/>
		<stop  offset="0.6" style="stop-color:#FFFFFF;stop-opacity:0"/>
		<stop  offset="1" style="stop-color:#000000;stop-opacity:0.3"/>
	</linearGradient>
	<path fill="url(#SVGID_2_)" fill-opacity="0.25" d="M48,8C18.365,8,8,18.365,8,48c0,29.633,10.365,40,40,40
		c29.637,0,40-10.367,40-40C88,18.365,77.637,8,48,8z M48,87C18.842,87,9,77.158,9,48S18.842,9,48,9s39,9.842,39,39S77.158,87,48,87
		z"/>
	<rect fill="none" width="96" height="96"/>
	<g>
		<path opacity="0.05" d="M48,64.835c-8.946,0-16.263-7.021-16.78-15.84c-0.019,0.329-0.05,0.656-0.05,0.99
			c0,9.28,7.55,16.83,16.83,16.83s16.83-7.55,16.83-16.83c0-0.334-0.031-0.661-0.05-0.99C64.263,57.814,56.946,64.835,48,64.835z"/>
		<path opacity="0.05" d="M48,64.835c-9.113,0-16.54-7.285-16.805-16.335c-0.005,0.166-0.025,0.328-0.025,0.495
			c0,9.28,7.55,16.83,16.83,16.83s16.83-7.55,16.83-16.83c0-0.167-0.02-0.329-0.025-0.495C64.54,57.55,57.113,64.835,48,64.835z"/>
		<path opacity="0.4" fill="#FFFFFF" d="M48,75.725c-15.119,0-27.441-12.168-27.707-27.225c-0.003,0.165-0.013,0.329-0.013,0.495
			c0,15.285,12.435,27.72,27.72,27.72s27.72-12.435,27.72-27.72c0-0.166-0.01-0.33-0.013-0.495
			C75.441,63.557,63.119,75.725,48,75.725z"/>
		<path opacity="0.1" fill="#FFFFFF" d="M48,75.725c-14.953,0-27.171-11.902-27.695-26.73c-0.012,0.329-0.025,0.658-0.025,0.99
			c0,15.285,12.435,27.72,27.72,27.72s27.72-12.435,27.72-27.72c0-0.332-0.013-0.661-0.025-0.99
			C75.171,63.823,62.953,75.725,48,75.725z"/>
		<path opacity="0.2" fill="#FFFFFF" d="M48,76.715c-15.83,0-28.71-12.88-28.71-28.71c0-15.831,12.88-28.71,28.71-28.71
			s28.71,12.879,28.71,28.71C76.71,63.835,63.83,76.715,48,76.715z"/>
		<path fill="#0FADEA" d="M48,76c-15.439,0-28-12.561-28-28s12.561-28,28-28s28,12.561,28,28S63.439,76,48,76z M65,48
			c0-9.374-7.626-17-17-17s-17,7.626-17,17s7.626,17,17,17S65,57.374,65,48z"/>
		<g opacity="0.5">
			<linearGradient id="SVGID_3_" gradientUnits="userSpaceOnUse" x1="28.3516" y1="68.1284" x2="67.6484" y2="68.1284">
				<stop  offset="0" style="stop-color:#646464;stop-opacity:0.2"/>
				<stop  offset="1" style="stop-color:#323232;stop-opacity:0.05"/>
			</linearGradient>
			<path fill="url(#SVGID_3_)" d="M48,76c-7.406,0-14.38-2.88-19.648-8.11l7.633-7.633c3.225,3.188,7.488,4.942,12.016,4.942
				s8.791-1.754,12.016-4.942l7.633,7.633C62.38,73.12,55.406,76,48,76z"/>
			<linearGradient id="SVGID_4_" gradientUnits="userSpaceOnUse" x1="27.9712" y1="67.748" x2="27.9712" y2="28.4512">
				<stop  offset="0" style="stop-color:#646464;stop-opacity:0.2"/>
				<stop  offset="1" style="stop-color:#C8C8C8;stop-opacity:0.1"/>
			</linearGradient>
			<path fill="url(#SVGID_4_)" d="M28.21,67.748c-5.23-5.269-8.11-12.242-8.11-19.648c0-7.407,2.88-14.38,8.11-19.648l7.633,7.633
				C32.654,39.31,30.9,43.572,30.9,48.1s1.754,8.791,4.942,12.016L28.21,67.748z"/>
			<linearGradient id="SVGID_5_" gradientUnits="userSpaceOnUse" x1="28.3516" y1="28.0715" x2="67.6484" y2="28.0715">
				<stop  offset="0" style="stop-color:#C8C8C8;stop-opacity:0.1"/>
				<stop  offset="1" style="stop-color:#FFFFFF;stop-opacity:0.4"/>
			</linearGradient>
			<path fill="url(#SVGID_5_)" d="M28.352,28.31C33.619,23.079,40.593,20.2,48,20.2s14.381,2.879,19.648,8.11l-7.633,7.634
				C56.791,32.754,52.527,31,48,31s-8.791,1.755-12.016,4.944L28.352,28.31z"/>
			<linearGradient id="SVGID_6_" gradientUnits="userSpaceOnUse" x1="68.0288" y1="67.748" x2="68.0288" y2="28.4512">
				<stop  offset="0" style="stop-color:#323232;stop-opacity:0.05"/>
				<stop  offset="1" style="stop-color:#000000;stop-opacity:0.1"/>
			</linearGradient>
			<path fill="url(#SVGID_6_)" d="M60.157,60.115C63.346,56.891,65.1,52.627,65.1,48.1s-1.754-8.79-4.942-12.015l7.633-7.633
				c5.23,5.268,8.11,12.242,8.11,19.648c0,7.406-2.88,14.38-8.11,19.648L60.157,60.115z"/>
			<linearGradient id="SVGID_7_" gradientUnits="userSpaceOnUse" x1="62.253" y1="69.106" x2="33.7315" y2="69.106">
				<stop  offset="0" style="stop-color:#FFFFFF;stop-opacity:0.05"/>
				<stop  offset="1" style="stop-color:#FFFFFF;stop-opacity:0.2"/>
			</linearGradient>
			<path fill="url(#SVGID_7_)" d="M48,73c-6.606,0-12.827-2.567-17.528-7.23l0.558-0.558c4.545,4.507,10.567,6.987,16.971,6.987
				s12.426-2.48,16.971-6.987l0.558,0.558C60.827,70.433,54.606,73,48,73z"/>
			<linearGradient id="SVGID_8_" gradientUnits="userSpaceOnUse" x1="26.9937" y1="62.4012" x2="26.9937" y2="33.8807">
				<stop  offset="0" style="stop-color:#FFFFFF;stop-opacity:0.2"/>
				<stop  offset="1" style="stop-color:#FFFFFF;stop-opacity:0.5"/>
			</linearGradient>
			<path fill="url(#SVGID_8_)" d="M30.33,65.628C25.667,60.927,23.1,54.706,23.1,48.1c0-6.607,2.567-12.828,7.23-17.528l0.558,0.557
				C26.381,35.673,23.9,41.696,23.9,48.1c0,6.403,2.48,12.426,6.987,16.971L30.33,65.628z"/>
			<linearGradient id="SVGID_9_" gradientUnits="userSpaceOnUse" x1="33.6499" y1="27.0938" x2="62.0051" y2="27.0938">
				<stop  offset="0" style="stop-color:#FFFFFF;stop-opacity:0.5"/>
				<stop  offset="1" style="stop-color:#FFFFFF;stop-opacity:0.9"/>
			</linearGradient>
			<path fill="url(#SVGID_9_)" d="M64.971,30.988C60.426,26.48,54.403,24,48,24s-12.426,2.481-16.971,6.988l-0.558-0.558
				c4.7-4.664,10.921-7.23,17.528-7.23s12.828,2.567,17.528,7.23L64.971,30.988z"/>
			<linearGradient id="SVGID_10_" gradientUnits="userSpaceOnUse" x1="69.0063" y1="33.8399" x2="69.0063" y2="62.2426">
				<stop  offset="0" style="stop-color:#FFFFFF;stop-opacity:0"/>
				<stop  offset="1" style="stop-color:#FFFFFF;stop-opacity:0.05"/>
			</linearGradient>
			<path fill="url(#SVGID_10_)" d="M65.112,65.07C69.619,60.525,72.1,54.503,72.1,48.1c0-6.404-2.48-12.426-6.987-16.971
				l0.558-0.557c4.663,4.7,7.23,10.921,7.23,17.528c0,6.606-2.567,12.827-7.23,17.528L65.112,65.07z"/>
			<linearGradient id="SVGID_11_" gradientUnits="userSpaceOnUse" x1="62.2303" y1="65.6919" x2="33.7543" y2="65.6919">
				<stop  offset="0" style="stop-color:#FFFFFF;stop-opacity:0.05"/>
				<stop  offset="1" style="stop-color:#FFFFFF;stop-opacity:0.2"/>
			</linearGradient>
			<path fill="url(#SVGID_11_)" d="M48,69c-5.541,0-10.757-2.151-14.7-6.059l0.558-0.558c3.789,3.751,8.808,5.815,14.143,5.815
				s10.354-2.064,14.143-5.815l0.558,0.558C58.756,66.849,53.54,69,48,69z"/>
			<linearGradient id="SVGID_12_" gradientUnits="userSpaceOnUse" x1="30.4077" y1="62.3783" x2="30.4077" y2="33.9026">
				<stop  offset="0" style="stop-color:#FFFFFF;stop-opacity:0.2"/>
				<stop  offset="1" style="stop-color:#FFFFFF;stop-opacity:0.5"/>
			</linearGradient>
			<path fill="url(#SVGID_12_)" d="M33.158,62.8c-3.907-3.943-6.059-9.159-6.059-14.7c0-5.54,2.151-10.757,6.058-14.701l0.559,0.559
				C29.965,37.746,27.9,42.764,27.9,48.1c0,5.335,2.064,10.354,5.815,14.143L33.158,62.8z"/>
			<linearGradient id="SVGID_13_" gradientUnits="userSpaceOnUse" x1="65.5923" y1="33.8617" x2="65.5923" y2="62.2201">
				<stop  offset="0" style="stop-color:#FFFFFF;stop-opacity:0"/>
				<stop  offset="1" style="stop-color:#FFFFFF;stop-opacity:0.05"/>
			</linearGradient>
			<path fill="url(#SVGID_13_)" d="M62.284,62.242C66.035,58.453,68.1,53.435,68.1,48.1c0-5.336-2.064-10.354-5.815-14.142
				l0.558-0.559C66.749,37.343,68.9,42.56,68.9,48.1s-2.151,10.756-6.059,14.7L62.284,62.242z"/>
			<linearGradient id="SVGID_14_" gradientUnits="userSpaceOnUse" x1="33.672" y1="30.5081" x2="61.9827" y2="30.5081">
				<stop  offset="0" style="stop-color:#FFFFFF;stop-opacity:0.5"/>
				<stop  offset="1" style="stop-color:#FFFFFF;stop-opacity:0.9"/>
			</linearGradient>
			<path fill="url(#SVGID_14_)" d="M33.299,33.257C37.242,29.35,42.459,27.2,48,27.2s10.758,2.15,14.7,6.058l-0.558,0.559
				C58.354,30.064,53.335,28,48,28s-10.354,2.065-14.143,5.817L33.299,33.257z"/>
		</g>
		<linearGradient id="SVGID_15_" gradientUnits="userSpaceOnUse" x1="48" y1="64.835" x2="48" y2="31.175">
			<stop  offset="0" style="stop-color:#000000;stop-opacity:0.3"/>
			<stop  offset="0.4" style="stop-color:#FFFFFF;stop-opacity:0"/>
			<stop  offset="1" style="stop-color:#FFFFFF"/>
		</linearGradient>
		<path fill="url(#SVGID_15_)" fill-opacity="0.25" d="M48,31.175c-9.28,0-16.83,7.55-16.83,16.83s7.55,16.83,16.83,16.83
			s16.83-7.55,16.83-16.83S57.28,31.175,48,31.175z M48,63.845c-8.734,0-15.84-7.106-15.84-15.84s7.106-15.84,15.84-15.84
			s15.84,7.106,15.84,15.84S56.734,63.845,48,63.845z"/>
		<path opacity="0.4" fill="#FFFFFF" d="M48,32c9.205,0,16.707,7.358,16.975,16.5C64.98,48.332,65,48.169,65,48
			c0-9.374-7.626-17-17-17s-17,7.626-17,17c0,0.169,0.02,0.332,0.025,0.5C31.293,39.358,38.795,32,48,32z"/>
		<path opacity="0.05" d="M48,30.185c-9.826,0-17.82,7.994-17.82,17.82c0,9.826,7.994,17.82,17.82,17.82s17.82-7.994,17.82-17.82
			C65.82,38.179,57.826,30.185,48,30.185z M48,64.835c-9.28,0-16.83-7.55-16.83-16.83s7.55-16.83,16.83-16.83
			s16.83,7.55,16.83,16.83S57.28,64.835,48,64.835z"/>
		<path opacity="0.05" d="M48,20.285c-15.285,0-27.72,12.435-27.72,27.72S32.715,75.725,48,75.725s27.72-12.435,27.72-27.72
			S63.285,20.285,48,20.285z M48,73.745c-14.194,0-25.74-11.546-25.74-25.74c0-14.193,11.546-25.74,25.74-25.74
			s25.74,11.547,25.74,25.74C73.74,62.199,62.194,73.745,48,73.745z"/>
		<path opacity="0.05" d="M48,20.285c-15.285,0-27.72,12.435-27.72,27.72S32.715,75.725,48,75.725s27.72-12.435,27.72-27.72
			S63.285,20.285,48,20.285z M48,74.735c-14.739,0-26.73-11.991-26.73-26.73S33.261,21.275,48,21.275s26.73,11.991,26.73,26.73
			S62.739,74.735,48,74.735z"/>
		<path opacity="0.05" d="M48,21c15.272,0,27.719,12.291,27.987,27.5C75.99,48.333,76,48.168,76,48c0-15.439-12.561-28-28-28
			S20,32.561,20,48c0,0.168,0.01,0.333,0.013,0.5C20.281,33.291,32.728,21,48,21z"/>
		<path opacity="0.05" d="M48,22c15.104,0,27.445,12.023,27.975,27C75.986,48.667,76,48.335,76,48c0-15.439-12.561-28-28-28
			S20,32.561,20,48c0,0.335,0.014,0.667,0.025,1C20.555,34.023,32.896,22,48,22z"/>
	</g>
	<g>
		<linearGradient id="SVGID_16_" gradientUnits="userSpaceOnUse" x1="49.5" y1="58.2815" x2="49.5" y2="37.7185">
			<stop  offset="0" style="stop-color:#000000;stop-opacity:0.3"/>
			<stop  offset="0.4" style="stop-color:#FFFFFF;stop-opacity:0"/>
			<stop  offset="1" style="stop-color:#FFFFFF"/>
		</linearGradient>
		<path fill="url(#SVGID_16_)" fill-opacity="0.25" d="M43.692,58.281c-0.506,0-1.009-0.13-1.452-0.375
			c-0.955-0.528-1.548-1.534-1.548-2.625V40.719c0-1.09,0.593-2.096,1.548-2.625c0.443-0.245,0.946-0.375,1.452-0.375
			c0.565,0,1.116,0.159,1.594,0.459l11.615,7.281c0.881,0.552,1.406,1.502,1.406,2.542c0,1.039-0.525,1.989-1.405,2.542
			l-11.616,7.282C44.807,58.123,44.256,58.281,43.692,58.281z"/>
		<linearGradient id="SVGID_17_" gradientUnits="userSpaceOnUse" x1="49.5" y1="57.2815" x2="49.5" y2="38.7185">
			<stop  offset="0" style="stop-color:#DD3C20"/>
			<stop  offset="0.5" style="stop-color:#EF4123"/>
			<stop  offset="1" style="stop-color:#F04E33"/>
		</linearGradient>
		<path fill="url(#SVGID_17_)" d="M43.693,57.281c-0.333,0-0.667-0.083-0.968-0.25c-0.637-0.353-1.032-1.022-1.032-1.75V41.719
			c0-0.728,0.395-2.397,1.032-2.75c0.302-0.167,0.635-0.25,0.968-0.25c0.369,0,0.738,0.102,1.063,0.306l11.615,7.281
			c0.583,0.366,0.938,1.006,0.938,1.694s-0.354,1.329-0.938,1.695l-11.615,7.281C44.431,57.179,44.062,57.281,43.693,57.281z"/>
		<path opacity="0.2" fill="#FFFFFF" d="M42.724,39.969c0.302-0.167,0.635-0.25,0.968-0.25c0.369,0,0.738,0.102,1.063,0.306
			l11.615,7.281c0.438,0.275,0.747,0.705,0.873,1.194c0.042-0.161,0.064-0.329,0.064-0.5c0-0.688-0.354-1.329-0.938-1.694
			l-11.615-7.281c-0.324-0.204-0.693-0.306-1.063-0.306c-0.333,0-0.667,0.083-0.968,0.25c-0.637,0.353-1.032,1.022-1.032,1.75v1
			C41.693,40.991,42.088,40.321,42.724,39.969z"/>
		<path opacity="0.05" d="M56.37,47.695l-11.615,7.281c-0.324,0.203-0.693,0.306-1.063,0.306c-0.333,0-0.667-0.083-0.968-0.25
			c-0.637-0.353-1.032-1.022-1.032-1.75v2c0,0.728,0.395,1.397,1.032,1.75c0.302,0.167,0.635,0.25,0.968,0.25
			c0.369,0,0.738-0.103,1.063-0.306l11.615-7.281c0.583-0.366,0.938-1.006,0.938-1.695c0-0.358-0.1-0.7-0.273-1
			C56.873,47.277,56.65,47.519,56.37,47.695z"/>
	</g>
</g>
</svg>
